HIERARCHY
ROOT SpineBase
{
  OFFSET 0.000000 0.000000 0.000000
  CHANNELS 6 Xposition Yposition Zposition Zrotation Xrotation Yrotation
  JOINT SpineMid
  {
    OFFSET -0.000000 32.803437 0.000000
    CHANNELS 3 Zrotation Xrotation Yrotation
    JOINT SpineShoulder
    {
      OFFSET -0.160937 24.291264 -0.896644
      CHANNELS 3 Zrotation Xrotation Yrotation
      JOINT Neck
      {
        OFFSET 0.009742 7.993244 -0.590492
        CHANNELS 3 Zrotation Xrotation Yrotation
        JOINT Head
        {
          OFFSET 4.683460 8.861811 5.883113
          CHANNELS 3 Zrotation Xrotation Yrotation
          End Site
          {
            OFFSET 0 0 0
          }
        }
      }
      JOINT ShoulderLeft
      {
        OFFSET -2.112571 -5.820861 -15.002946
        CHANNELS 3 Zrotation Xrotation Yrotation
        JOINT ElbowLeft
        {
          OFFSET 5.889472 -24.718564 -4.980359
          CHANNELS 3 Zrotation Xrotation Yrotation
          JOINT WristLeft
          {
            OFFSET 7.818546 -18.404121 8.643609
            CHANNELS 3 Zrotation Xrotation Yrotation
            JOINT HandLeft
            {
              OFFSET 0.130092 -6.683662 5.462155
              CHANNELS 3 Zrotation Xrotation Yrotation
              JOINT HandTipLeft
              {
                OFFSET 2.535989 -5.275932 2.495614
                CHANNELS 3 Zrotation Xrotation Yrotation
                End Site
                {
                  OFFSET 0 0 0
                }
              }
              JOINT ThumbLeft
              {
                OFFSET -3.662247 -0.917487 -2.577004
                CHANNELS 3 Zrotation Xrotation Yrotation
                End Site
                {
                  OFFSET 0 0 0
                }
              }
            }
          }
        }
      }
      JOINT ShoulderRight
      {
        OFFSET 3.449405 -11.919206 -20.188653
        CHANNELS 3 Zrotation Xrotation Yrotation
        JOINT ElbowRight
        {
          OFFSET 6.470666 -24.140055 2.552876
          CHANNELS 3 Zrotation Xrotation Yrotation
          JOINT WristRight
          {
            OFFSET 0.429439 -18.764561 14.168081
            CHANNELS 3 Zrotation Xrotation Yrotation
            JOINT HandRight
            {
              OFFSET 1.493840 -4.853690 0.188900
              CHANNELS 3 Zrotation Xrotation Yrotation
              JOINT HandTipRight
              {
                OFFSET 0.837315 -4.081854 2.703863
                CHANNELS 3 Zrotation Xrotation Yrotation
                End Site
                {
                  OFFSET 0 0 0
                }
              }
              JOINT ThumbRight
              {
                OFFSET 3.078919 3.195065 -0.910724
                CHANNELS 3 Zrotation Xrotation Yrotation
                End Site
                {
                  OFFSET 0 0 0
                }
              }
            }
          }
        }
      }
    }
  }
  JOINT HipLeft
  {
    OFFSET -3.306615 1.461066 -7.588579
    CHANNELS 3 Zrotation Xrotation Yrotation
    JOINT KneeLeft
    {
      OFFSET -3.265409 -36.550132 -3.315333
      CHANNELS 3 Zrotation Xrotation Yrotation
      JOINT AnkleLeft
      {
        OFFSET -8.947215 -35.280388 0.827972
        CHANNELS 3 Zrotation Xrotation Yrotation
        JOINT FootLeft
        {
          OFFSET -6.842402 -3.086210 -11.100834
          CHANNELS 3 Zrotation Xrotation Yrotation
          End Site
          {
            OFFSET 0 0 0
          }
        }
      }
    }
  }
  JOINT HipRight
  {
    OFFSET 3.645184 0.483998 0.041340
    CHANNELS 3 Zrotation Xrotation Yrotation
    JOINT KneeRight
    {
      OFFSET -18.086215 -41.470392 10.330596
      CHANNELS 3 Zrotation Xrotation Yrotation
      JOINT AnkleRight
      {
        OFFSET 2.283542 -39.173654 -13.407912
        CHANNELS 3 Zrotation Xrotation Yrotation
        JOINT FootRight
        {
          OFFSET -3.365998 6.303642 -11.957956
          CHANNELS 3 Zrotation Xrotation Yrotation
          End Site
          {
            OFFSET 0 0 0
          }
        }
      }
    }
  }
}
MOTION
Frames: 10
Frame Time: 0.033333
-14.675319 82.307277 278.427010 0.000000 0.000000 -47.662607 -0.000000 0.000000 47.662607 -0.000000 0.000000 0.000000 -0.000000 0.000000 0.000000 0.000000 0.000000 0.000000 -0.000000 0.000000 0.000000 -0.000000 0.000000 0.000000 -0.000000 0.000000 0.000000 -0.000000 0.000000 0.000000 0.000000 0.000000 0.000000 0.000000 0.000000 0.000000 -0.000000 0.000000 0.000000 -0.000000 0.000000 0.000000 -0.000000 0.000000 0.000000 -0.000000 0.000000 0.000000 0.000000 0.000000 0.000000 0.000000 0.000000 0.000000 -0.000000 0.000000 47.662607 -0.000000 0.000000 0.000000 -0.000000 0.000000 0.000000 0.000000 0.000000 0.000000 -0.000000 0.000000 47.662607 -0.000000 0.000000 0.000000 -0.000000 0.000000 0.000000 0.000000 0.000000 0.000000
-14.852466 82.212136 278.321745 -0.250404 0.266370 -48.117807 0.365486 0.008603 48.118361 -0.000000 0.000000 0.000000 1.849582 -1.010898 -0.687283 0.000000 0.000000 0.000000 -0.000000 0.000000 0.000000 -1.032590 0.279431 -0.365564 0.527886 0.382874 -0.028499 2.362789 -1.837929 0.737749 0.000000 0.000000 0.000000 0.000000 0.000000 0.000000 -0.000000 0.000000 0.000000 -0.000000 0.000000 0.000000 1.487331 -1.813159 -0.474474 -3.312892 5.318953 0.175318 0.000000 0.000000 0.000000 0.000000 0.000000 0.000000 0.365486 0.008603 48.118361 -0.000000 0.000000 0.000000 -0.000000 0.000000 0.000000 0.000000 0.000000 0.000000 0.365486 0.008603 48.118361 -0.000000 0.000000 0.000000 -0.787021 0.875294 -1.038417 0.000000 0.000000 0.000000
-14.977658 82.146655 278.265033 -0.424622 0.453044 -48.504726 0.620668 0.017887 48.506308 -0.000000 0.000000 0.000000 3.524075 -1.958249 -1.280283 0.000000 0.000000 0.000000 -0.000000 0.000000 0.000000 -1.867005 0.540183 -0.644523 0.946585 0.628880 -0.067187 4.307854 -3.193578 1.432266 0.000000 0.000000 0.000000 0.000000 0.000000 0.000000 -0.000000 0.000000 0.000000 -0.000000 0.000000 0.000000 2.601189 -3.080853 -0.771014 -6.074156 9.826507 0.492122 0.000000 0.000000 0.000000 0.000000 0.000000 0.000000 1.664795 -0.098108 48.528935 -0.604603 0.859149 -0.017363 -0.000000 0.000000 0.000000 0.000000 0.000000 0.000000 -0.147886 -0.007975 48.131408 0.532227 -0.555057 0.377544 -1.323328 1.516729 -1.737197 0.000000 0.000000 0.000000
-15.050896 82.110834 278.256874 -0.523496 0.560920 -48.831724 0.766846 0.024854 48.834120 -0.000000 0.000000 0.000000 5.043132 -2.844941 -1.792103 0.000000 0.000000 0.000000 -0.000000 0.000000 0.000000 -2.503120 0.778748 -0.838384 1.258401 0.734232 -0.118215 5.833534 -4.091591 2.040321 0.000000 0.000000 0.000000 0.000000 0.000000 0.000000 -0.000000 0.000000 0.000000 -0.000000 0.000000 0.000000 3.392895 -3.853321 -0.930426 -8.155905 13.349859 0.869679 0.000000 0.000000 0.000000 0.000000 0.000000 0.000000 2.095687 -0.122144 48.864007 -0.763573 1.097475 -0.021445 -0.000000 0.000000 0.000000 0.000000 0.000000 0.000000 -0.121877 0.029643 48.396879 0.586532 -0.667719 0.441082 -1.598618 1.891954 -2.076298 0.000000 0.000000 0.000000
-15.072178 82.104674 278.297267 -0.547520 0.590535 -49.104815 0.804832 0.027284 49.107445 -0.000000 0.000000 0.000000 6.424117 -3.674619 -2.233836 0.000000 0.000000 0.000000 -0.000000 0.000000 0.000000 -2.941232 0.992637 -0.948663 1.465020 0.696236 -0.183121 6.938779 -4.553734 2.531611 0.000000 0.000000 0.000000 0.000000 0.000000 0.000000 -0.000000 0.000000 0.000000 -0.000000 0.000000 0.000000 3.895756 -4.163988 -0.977142 -9.419312 15.718642 1.214925 0.000000 0.000000 0.000000 0.000000 0.000000 0.000000 2.257924 -0.137630 49.141704 -0.826013 1.206844 -0.024160 -0.000000 0.000000 0.000000 0.000000 0.000000 0.000000 -0.029238 0.095572 48.690873 0.499321 -0.671584 0.420392 -1.607652 1.982764 -2.045489 0.000000 0.000000 0.000000
-15.041505 82.128174 278.386213 -0.496844 0.542057 -49.328018 0.734927 0.023574 49.330217 -0.000000 0.000000 0.000000 7.682262 -4.451313 -2.614804 0.000000 0.000000 0.000000 -0.000000 0.000000 0.000000 -3.181778 1.180310 -0.976726 1.567259 0.513203 -0.262838 7.623398 -4.596397 2.887664 0.000000 0.000000 0.000000 0.000000 0.000000 0.000000 -0.000000 0.000000 0.000000 -0.000000 0.000000 0.000000 4.128118 -4.029210 -0.923071 -9.756585 16.796874 1.446843 0.000000 0.000000 0.000000 0.000000 0.000000 0.000000 2.151412 -0.148695 49.365954 -0.791855 1.187081 -0.025987 -0.000000 0.000000 0.000000 0.000000 0.000000 0.000000 0.734927 0.023574 49.330217 -0.000000 0.000000 0.000000 -1.349575 1.786208 -1.644195 0.000000 0.000000 0.000000
-15.028798 82.227445 278.472226 -0.440432 0.447914 -49.387805 0.626716 0.042791 49.389293 -0.000000 0.000000 0.000000 9.255689 -5.446533 -3.063223 0.000000 0.000000 0.000000 -0.000000 0.000000 0.000000 -3.311995 1.263932 -0.999852 1.903225 0.579226 -0.058201 7.852578 -4.125798 3.223375 0.000000 0.000000 0.000000 0.000000 0.000000 0.000000 -0.000000 0.000000 0.000000 -0.000000 0.000000 0.000000 4.008118 -3.287115 -0.732146 -10.919259 12.331310 -0.744047 0.000000 0.000000 0.000000 0.000000 0.000000 0.000000 1.996418 -0.081124 49.417560 -1.049529 1.972739 -0.235076 0.255952 -0.850859 0.223779 0.000000 0.000000 0.000000 0.626716 0.042791 49.389293 -0.000000 0.000000 0.000000 -1.397588 1.666833 -1.802226 0.000000 0.000000 0.000000
-14.864826 82.329180 278.695983 -0.195181 0.191806 -49.452030 0.272630 0.023621 49.452301 -0.000000 0.000000 0.000000 10.495091 -6.267665 -3.381075 0.000000 0.000000 0.000000 -0.000000 0.000000 0.000000 -2.865121 1.427907 -0.715325 1.429521 -0.481011 -0.405723 7.888283 -3.304378 3.140886 0.000000 0.000000 0.000000 0.000000 0.000000 0.000000 -0.000000 0.000000 0.000000 -0.000000 0.000000 0.000000 3.591124 -2.305824 -0.492526 -9.344632 11.491214 -0.557950 0.000000 0.000000 0.000000 0.000000 0.000000 0.000000 1.171437 -0.082826 49.474324 -0.805840 1.696427 -0.258183 0.028707 -1.015831 1.401834 0.000000 0.000000 0.000000 0.272630 0.023621 49.452301 -0.000000 0.000000 0.000000 -0.000000 0.000000 0.000000 0.000000 0.000000 0.000000
-14.604497 82.431906 278.998052 0.172952 -0.163520 -49.521872 -0.236655 -0.025407 49.522066 -0.000000 0.000000 0.000000 11.368611 -6.793977 -3.633519 0.000000 0.000000 0.000000 0.631529 -0.541336 -0.253148 -3.092735 2.200236 -0.128801 0.902675 -1.934103 -0.846428 7.013119 -1.401370 2.964594 0.000000 0.000000 0.000000 0.000000 0.000000 0.000000 -0.000000 0.000000 0.000000 -0.000000 0.000000 0.000000 1.928228 -0.276855 -0.005470 -3.973701 7.745043 0.355099 0.000000 0.000000 0.000000 0.000000 0.000000 0.000000 -0.236655 -0.025407 49.522066 -0.364756 1.012344 -0.261921 0.076174 -1.234954 1.817253 0.000000 0.000000 0.000000 1.315341 0.757640 50.207888 -1.594923 0.691421 -0.686116 1.512100 -0.810013 2.397364 0.000000 0.000000 0.000000
-14.374990 82.500681 279.244549 0.486985 -0.448934 -49.742603 -0.657300 -0.081540 49.744043 -0.000000 0.000000 0.000000 11.690650 -7.086622 -3.658912 0.000000 0.000000 0.000000 0.690184 -0.577679 -0.273107 -2.552481 2.494792 0.280865 0.216542 -3.176459 -1.340634 6.360072 0.420006 2.991281 0.000000 0.000000 0.000000 0.000000 0.000000 0.000000 -0.000000 0.000000 0.000000 -0.000000 0.000000 0.000000 1.336400 0.879526 0.311430 1.101707 5.551985 2.580576 0.000000 0.000000 0.000000 0.000000 0.000000 0.000000 -0.657300 -0.081540 49.744043 -0.418469 1.065474 -0.275949 0.114598 -1.428722 2.211743 0.000000 0.000000 0.000000 1.514182 0.886904 50.718129 -2.124455 1.067749 -0.969552 2.360546 -1.437357 3.613645 0.000000 0.000000 0.000000
